<svg height="512" viewBox="0 0 256 256" width="512" xmlns="http://www.w3.org/2000/svg"><g id="Layer_1"><g><path d="m127.296 168.255-4.85 6.47-5.88 7.83c-2.88 3.84-9 1.8-9-3v-31.03z" fill="#878787"/><path d="m127.296 168.255-4.85 6.47-14.88-14.88v-11.32z" fill="#4c4944"/><path d="m51.267 82.191c-3.418 1.266-4.376 5.646-1.799 8.224l58.098 58.111c28.693 28.693 58.228 58.215 58.111 58.098 2.578 2.577 6.957 1.619 8.224-1.799l68.381-184.59c1.485-4.008-2.418-7.91-6.426-6.426z" fill="#72c2e9"/><path d="m164.276 190.376-88.559-88.556c-.977-.977-.977-2.56 0-3.535.977-.977 2.559-.977 3.535 0l85.801 85.799 47.544-128.339c.48-1.296 1.923-1.952 3.213-1.477 1.295.48 1.956 1.919 1.477 3.213l-48.898 131.995c-.631 1.701-2.823 2.192-4.113.9zm-95.63-95.628-2.931-2.933c-.977-.977-.977-2.56 0-3.536.977-.975 2.56-.976 3.536.001l2.931 2.933c.977.977.977 2.56 0 3.535-.979.978-2.562.974-3.536 0z" fill="#c5e5fe"/><g><path d="m221.686 37.936c.979-.971.979-2.561 0-3.54-.94-.94-2.59-.94-3.53 0-.991 1.012-.955 2.583 0 3.54.962.962 2.545.982 3.53 0z"/><path d="m234.976 11.465-184.58 68.38c-5.11 1.896-6.576 8.465-2.7 12.341l57.37 57.38v29.989c-.033 7.188 9.223 10.244 13.5 4.5l9.001-11.996 36.349 36.336c3.849 3.876 10.441 2.378 12.33-2.7l5.431-14.66c.47-1.29-.19-2.73-1.48-3.21-1.27-.47-2.75.22-3.21 1.479l-5.43 14.65c-.645 1.725-2.834 2.174-4.11.9-47.485-47.474-34.031-34.021-56.339-56.332l103.508-103.517c.954-.955.995-2.533 0-3.53-.939-.949-2.59-.949-3.53 0l-103.519 103.508-56.331-56.337c-1.321-1.321-.783-3.481.9-4.11l184.066-68.186-10.976 10.976c-.971.979-.971 2.56 0 3.54.956.956 2.537.992 3.529 0l10.988-10.98-55.817 150.66c-.471 1.29.189 2.73 1.479 3.21 1.271.47 2.75-.22 3.22-1.47 0-.01 0-.01 0-.021l56-151.159c2.236-6.073-3.713-11.873-9.649-9.641zm-124.91 143.099 13.928 13.923-9.428 12.567c-1.538 1.98-4.5.813-4.5-1.5z"/><path d="m183.666 178.445c-1.26-.471-2.739.22-3.21 1.479-.479 1.29.19 2.73 1.48 3.21 1.401.504 2.763-.266 3.21-1.479.479-1.29-.181-2.73-1.48-3.21z"/><path d="m57.445 202.182 20.592-20.592c.977-.977.977-2.559 0-3.535s-2.559-.977-3.535 0l-20.592 20.591c-.977.977-.977 2.559 0 3.535s2.558.977 3.535.001z"/><path d="m66.178 165.509c-.977-.977-2.559-.977-3.535 0l-28.145 28.146c-4.25 4.247-11.163 4.248-15.411 0-4.248-4.249-4.248-11.162 0-15.411 4.26-4.26 11.151-4.26 15.411 0 .977.977 2.559.977 3.535 0s.977-2.559 0-3.535c-6.214-6.214-16.269-6.215-22.481 0-6.198 6.197-6.198 16.283 0 22.481 6.195 6.197 16.283 6.198 22.481 0l28.145-28.146c.977-.977.977-2.559 0-3.535z"/><path d="m87.047 189.913-28.146 28.145c-6.198 6.198-6.198 16.284 0 22.481 9.919 9.919 27.139 2.963 27.139-11.24 0-4.246-1.654-8.238-4.657-11.241-.977-.977-2.559-.977-3.535 0s-.977 2.559 0 3.535c2.059 2.059 3.192 4.795 3.192 7.706 0 9.63-11.729 14.575-18.604 7.705-4.248-4.249-4.248-11.162 0-15.411l28.146-28.145c.977-.976.977-2.559 0-3.535s-2.558-.976-3.535 0z"/></g></g></g></svg>