<svg height="512" viewBox="0 0 128 128" width="512" xmlns="http://www.w3.org/2000/svg"><path d="m115.263 15.557h-97.526a8 8 0 0 0 -8 8v66.26a8 8 0 0 0 8 8h36.843l-1.806 12.088h-9.292a3.156 3.156 0 0 0 -3.157 3.156v.227a3.156 3.156 0 0 0 3.156 3.155h45.038a3.156 3.156 0 0 0 3.156-3.156v-.226a3.156 3.156 0 0 0 -3.156-3.156h-9.293l-1.806-12.088h37.843a7 7 0 0 0 7-7v-68.26a7 7 0 0 0 -7-7z" fill="#e6e7e8"/><rect fill="#6dc9f7" height="80.26" rx="7" width="110.526" x="6.737" y="12.557"/><path d="m110.263 12.557h-96.526a7 7 0 0 0 -7 7v59.6h110.526v-59.6a7 7 0 0 0 -7-7z" fill="#d4fbff"/><path d="m110.263 12.557h-96.526a7 7 0 0 0 -7 7v3.368a7.368 7.368 0 0 1 7.368-7.368h95.795a7.368 7.368 0 0 1 7.368 7.368v-3.368a7 7 0 0 0 -7.005-7z" fill="#fff"/><rect fill="#0089ef" height="4.539" rx="2.156" width="49.349" x="37.326" y="106.905"/><path d="m72.259 92.817h-20.518l-2.105 14.088h24.728z" fill="#0089ef"/><path d="m93.228 83.491a2.106 2.106 0 1 0 2.106 2.109 2.106 2.106 0 0 0 -2.106-2.109z" fill="#fff"/><path d="m100.6 83.491a2.106 2.106 0 1 0 2.1 2.109 2.105 2.105 0 0 0 -2.1-2.109z" fill="#0089ef"/><path d="m107.965 83.491a2.106 2.106 0 1 0 2.106 2.106 2.106 2.106 0 0 0 -2.106-2.106z" fill="#fa759e"/><rect fill="#6dc9f7" height="24.723" rx="2.44" width="35.459" x="71.637" y="44.525"/><rect fill="#d4fbff" height="18.217" rx="2.44" width="27.998" x="75.367" y="47.778"/><path d="m87.344 47.778h4.045v18.217h-4.045z" fill="#fff"/><path d="m79.397 47.778h4.045v18.217h-4.045z" fill="#fff"/><path d="m95.292 47.778h4.045v18.217h-4.045z" fill="#fff"/><path d="m54.414 59.747 2.465-13.547a1.558 1.558 0 0 0 -1.533-1.836h-31.384l3.031 16.661h25.889a1.557 1.557 0 0 0 1.532-1.278z" fill="#0089ef"/><path d="m33.5 67.963a2.733 2.733 0 1 0 2.735 2.737 2.733 2.733 0 0 0 -2.735-2.737z" fill="#6dc9f7"/><path d="m47.367 67.963a2.733 2.733 0 1 0 2.733 2.737 2.733 2.733 0 0 0 -2.733-2.737z" fill="#6dc9f7"/><g fill="#3a2c60"><path d="m104.656 43.524h-12.172a3.544 3.544 0 0 0 -.228-.392l5.063-5.063a1 1 0 0 0 -1.414-1.414l-5.218 5.219a3.4 3.4 0 0 0 -2.64 0l-5.219-5.219a1 1 0 0 0 -1.414 1.414l5.063 5.063a3.537 3.537 0 0 0 -.227.392h-12.173a3.443 3.443 0 0 0 -3.439 3.44v19.844a3.443 3.443 0 0 0 3.439 3.44h30.579a3.444 3.444 0 0 0 3.44-3.44v-19.844a3.444 3.444 0 0 0 -3.44-3.44zm1.44 23.284a1.442 1.442 0 0 1 -1.44 1.44h-30.579a1.441 1.441 0 0 1 -1.439-1.44v-19.844a1.441 1.441 0 0 1 1.439-1.44h30.579a1.442 1.442 0 0 1 1.44 1.44z"/><path d="m100.926 46.777h-23.118a3.444 3.444 0 0 0 -3.44 3.44v13.338a3.444 3.444 0 0 0 3.44 3.445h23.118a3.444 3.444 0 0 0 3.44-3.44v-13.343a3.444 3.444 0 0 0 -3.44-3.44zm1.44 16.778a1.442 1.442 0 0 1 -1.44 1.44h-23.118a1.442 1.442 0 0 1 -1.44-1.44v-13.338a1.442 1.442 0 0 1 1.44-1.44h23.118a1.442 1.442 0 0 1 1.44 1.44z"/><path d="m55.346 43.365h-30.546l-.8-4.365a1 1 0 0 0 -.984-.82h-6.116a1 1 0 0 0 0 2h5.281l4.77 26.22a1 1 0 0 0 .984.821h4.219a3.732 3.732 0 1 0 2.69 0h11.178a3.732 3.732 0 1 0 2.691 0h4.438a1 1 0 0 0 0-2h-24.378l-.581-3.2h24.69a2.555 2.555 0 0 0 2.516-2.1l2.465-13.541a2.558 2.558 0 0 0 -2.517-3.015zm-21.846 29.063a1.733 1.733 0 1 1 1.732-1.733 1.735 1.735 0 0 1 -1.732 1.733zm13.865 0a1.733 1.733 0 1 1 1.735-1.733 1.735 1.735 0 0 1 -1.732 1.733zm6.063-12.86a.558.558 0 0 1 -.549.458h-25.051l-2.667-14.661h30.185a.558.558 0 0 1 .549.657z"/><path d="m78.445 32.021a1 1 0 0 0 .866.5 1 1 0 0 0 .864-1.5 21.8 21.8 0 0 0 -37.408-.621l-.435-2.26a1 1 0 1 0 -1.964.378l.9 4.667a1 1 0 0 0 .981.811 1.05 1.05 0 0 0 .147-.011l4.855-.719a1 1 0 1 0 -.293-1.978l-2.63.389a19.8 19.8 0 0 1 34.119.347z"/><path d="m110.263 11.557h-96.526a8.009 8.009 0 0 0 -8 8v66.26a8.009 8.009 0 0 0 8 8h10.43a1 1 0 0 0 0-2h-10.43a6.007 6.007 0 0 1 -6-6v-5.662h108.526v5.662a6.006 6.006 0 0 1 -6 6h-65.683a1 1 0 0 0 0 2h6l-1.807 12.088h-9.292a3.158 3.158 0 0 0 -3.155 3.156v.227a3.158 3.158 0 0 0 3.155 3.155h45.038a3.159 3.159 0 0 0 3.156-3.155v-.227a3.159 3.159 0 0 0 -3.156-3.156h-9.293l-1.807-12.088h36.844a8.009 8.009 0 0 0 8-8v-66.26a8.009 8.009 0 0 0 -8-8zm-24.588 97.5v.227a1.157 1.157 0 0 1 -1.156 1.155h-45.038a1.156 1.156 0 0 1 -1.155-1.155v-.227a1.156 1.156 0 0 1 1.155-1.156h45.038a1.157 1.157 0 0 1 1.156 1.16zm-12.475-3.152h-22.4l1.8-12.088h18.8zm-65.463-27.75v-58.6a6.007 6.007 0 0 1 6-6h96.526a6.006 6.006 0 0 1 6 6v58.6z"/><path d="m40.667 92.817a1 1 0 0 0 -1-1h-10.834a1 1 0 0 0 0 2h10.834a1 1 0 0 0 1-1z"/></g></svg>