<?xml version="1.0" encoding="iso-8859-1"?>
<!-- Generator: Adobe Illustrator 19.0.0, SVG Export Plug-In . SVG Version: 6.00 Build 0)  -->
<svg version="1.1" id="Capa_1" xmlns="http://www.w3.org/2000/svg" xmlns:xlink="http://www.w3.org/1999/xlink" x="0px" y="0px"
	 viewBox="0 0 512 512" style="enable-background:new 0 0 512 512;" xml:space="preserve">
<rect x="218.903" y="121.505" transform="matrix(-0.7071 -0.7071 0.7071 -0.7071 242.4625 602.379)" style="fill:#CCC8CA;" width="54.169" height="258.938"/>
<rect x="242.023" y="131.083" transform="matrix(-0.7071 -0.7071 0.7071 -0.7071 252.0439 625.5038)" style="fill:#BFBEBE;" width="27.09" height="258.938"/>
<path style="fill:#2D5872;" d="M38.777,491.592L5.379,458.194c-7.172-7.172-7.172-18.801,0-25.974l134.338-134.338
	c7.172-7.172,18.801-7.172,25.974,0l33.398,33.398c7.172,7.172,7.172,18.801,0,25.974L64.751,491.592
	C57.579,498.764,45.95,498.764,38.777,491.592z"/>
<path style="fill:#234C60;" d="M199.089,331.28l-32.886-32.886c7.172,7.172,7.172,18.801,0,25.974L31.865,458.706
	c-7.172,7.172-18.801,7.172-25.974,0l32.886,32.886c7.172,7.172,18.801,7.172,25.974,0l134.338-134.338
	C206.262,350.081,206.262,338.452,199.089,331.28z"/>
<path style="fill:#FF4C4C;" d="M490.259,163.602c-7.598-7.598-19.582-9.628-29.72-3.889l-13.12-13.12
	c-5.329-5.329-6.268-13.281-3.018-19.538c1.89-3.639,1.235-8.076-1.665-10.976c-8.249-8.249-24.018-24.018-39.153-39.153
	c-24.692-24.692-56.262-41.354-90.581-47.809l-74.467-14.004c-4.63-0.871-7.081,5.271-3.125,7.828l66.999,43.294
	c19.446,12.566,23.434,39.355,8.49,57.04l-11.115,13.154c-3.167,3.748-2.934,9.297,0.535,12.767l46.763,46.763
	c3.553,3.553,9.267,3.7,12.998,0.334l12.936-11.671c14.095-11.702,34.783-10.744,47.736,2.21l6.334,6.334l0,0
	c-5.739,10.138-3.708,22.122,3.889,29.72l19.086,19.086c3.54,3.54,9.28,3.54,12.82,0l46.463-46.463c3.54-3.54,3.54-9.28,0-12.82
	L490.259,163.602z"/>
<path style="fill:#F33939;" d="M509.345,182.688l-19.085-19.085c-7.598-7.598-19.582-9.628-29.72-3.889l-0.002-0.002l-33.452,33.452
	l0.002,0.002l0,0c-5.739,10.138-3.708,22.123,3.889,29.72l19.085,19.085c3.54,3.54,9.28,3.54,12.82,0l46.463-46.463
	C512.885,191.967,512.885,186.228,509.345,182.688z"/>
<path style="fill:#E53030;" d="M443.811,176.436l-16.726,16.726l0.002,0.002l0,0c-5.739,10.138-3.708,22.123,3.889,29.72
	l19.085,19.085c3.54,3.54,9.28,3.54,12.82,0l23.232-23.232L443.811,176.436z"/>
<g>
</g>
<g>
</g>
<g>
</g>
<g>
</g>
<g>
</g>
<g>
</g>
<g>
</g>
<g>
</g>
<g>
</g>
<g>
</g>
<g>
</g>
<g>
</g>
<g>
</g>
<g>
</g>
<g>
</g>
</svg>
