<svg height="512" viewBox="0 0 55 59" width="512" xmlns="http://www.w3.org/2000/svg"><g id="Page-1" fill="none" fill-rule="evenodd"><g id="021---Marketing-Distribution" fill-rule="nonzero"><path id="Shape" d="m42 29c.5522847 0 1-.4477153 1-1s-.4477153-1-1-1h-5v-19c0-.55228475.4477153-1 1-1h4c.5522847 0 1-.44771525 1-1s-.4477153-1-1-1h-4c-1.6568542 0-3 1.34314575-3 3v19h-4c-.5522847 0-1 .4477153-1 1s.4477153 1 1 1h4v19c0 1.6568542 1.3431458 3 3 3h4c.5522847 0 1-.4477153 1-1s-.4477153-1-1-1h-4c-.5522847 0-1-.4477153-1-1v-19z" fill="#3d324c"/><path id="Shape" d="m26 43c-2-10-11-10-11-10h-10c-1.32608245 0-2.59785201-.5267842-3.53553391-1.4644661-.93768189-.9376819-1.46446609-2.2094515-1.46446609-3.5355339 0-2.7614237 2.23857625-5 5-5h10s9 0 11-10l2 15z" fill="#f0c419"/><path id="Shape" d="m15 28h-3c-.5522847 0-1-.4477153-1-1s.4477153-1 1-1h3c2.2849653-.0665673 4.5207166-.6796843 6.52-1.788.3140834-.1808712.7014486-.1776383 1.0124694.0084499.3110209.1860883.4970064.5258994.4861167.8881758-.0108896.3622765-.2169496.6903031-.5385861.8573743-2.2889223 1.2808612-4.8576375 1.9793594-7.48 2.034z" fill="#f3d55b"/><rect id="Rectangle-path" fill="#f3d55b" height="36" rx="2.5" width="5" x="26" y="10"/><path id="Shape" d="m6 33h6v12c0 1.6568542-1.3431458 3-3 3-1.65685425 0-3-1.3431458-3-3z" fill="#e57e25"/><path id="Shape" d="m8 23v10h-3c-2.76142375 0-5-2.2385763-5-5s2.23857625-5 5-5z" fill="#f29c1f"/><path id="Shape" d="m12 39v6c0 1.6568542-1.3431458 3-3 3-1.65685425 0-3-1.3431458-3-3v-6z" fill="#f29c1f"/><rect id="Rectangle-path" fill="#ff5364" height="12" rx="2" width="12" x="42" y="42"/><path id="Shape" d="m54 59h-12c-.5522847 0-1-.4477153-1-1s.4477153-1 1-1h12c.5522847 0 1 .4477153 1 1s-.4477153 1-1 1z" fill="#df4d60"/><rect id="Rectangle-path" fill="#ff5364" height="12" rx="2" width="12" x="42" y="21"/><path id="Shape" d="m54 38h-12c-.5522847 0-1-.4477153-1-1s.4477153-1 1-1h12c.5522847 0 1 .4477153 1 1s-.4477153 1-1 1z" fill="#df4d60"/><rect id="Rectangle-path" fill="#ff5364" height="12" rx="2" width="12" x="42"/><path id="Shape" d="m54 17h-12c-.5522847 0-1-.4477153-1-1s.4477153-1 1-1h12c.5522847 0 1 .4477153 1 1s-.4477153 1-1 1z" fill="#df4d60"/></g></g></svg>